<svg xmlns="http://www.w3.org/2000/svg" viewBox="0 0 880 256" width="880" height="256" role="img" aria-labelledby="titleLockupB">
  <title id="titleLockupB">Logo Bánh Lọc Nhà Jun — Concept B Lockup</title>
  <defs>
    <style>
      @import url('https://fonts.googleapis.com/css2?family=Playfair+Display:wght@700;900&amp;family=Inter:wght@600;700&amp;display=swap');
      .brand-title {
        font-family: 'Playfair Display', Georgia, serif;
        font-weight: 900;
        font-size: 52px;
        fill: #1A4329;
        letter-spacing: -0.5px;
      }
      .brand-accent {
        fill: #9E2A1C;
      }
      .brand-sub {
        font-family: 'Inter', system-ui, -apple-system, sans-serif;
        font-weight: 700;
        font-size: 16px;
        fill: #635445;
        letter-spacing: 4px;
        text-transform: uppercase;
      }
    </style>
  </defs>

  <!-- Biểu Tượng (Symbol) -->
  <g transform="translate(36, 38.0) scale(0.703125)">
    <g id="symbol">
    <!-- Phiến Lá Chuối Nâng Đỡ Đáy Bánh (Banana Leaf Base) -->
    <path fill="#1A4329" d="M20 176
      C64 198 126 202 188 186
      C218 178 234 166 242 156
      C220 168 180 180 130 180
      C76 180 38 172 20 176 Z"/>

    <!-- Vỏ Bánh Lọc Bán Nguyệt với 4 Nếp Gấp Mí và Cửa Sổ Bột Trong (Pleated Dumpling Shell) -->
    <path fill="#1A4329" fill-rule="evenodd" d="M38 164
      C42 130 60 88 88 78
      C100 74 110 78 112 88
      C124 82 136 88 138 98
      C150 94 162 102 162 114
      C174 114 184 126 182 138
      C190 144 194 156 190 166
      C144 174 90 172 38 164 Z
      M58 158
      C66 128 88 108 120 108
      C150 108 168 130 172 158
      C136 164 94 164 58 158 Z"/>

    <!-- Chú Tôm Rim Đỏ Son Uốn Lượn Trong Bánh (Braised Shrimp Filling) -->
    <path fill="#9E2A1C" d="M88 150
      C94 132 114 122 132 126
      C140 128 146 134 142 142
      C138 148 130 148 122 146
      C112 144 104 148 100 154
      C96 158 92 156 88 150 Z"/>
    <path fill="#9E2A1C" d="M132 126 C138 118 148 118 152 122 C152 126 146 130 142 128 Z"/>

    <!-- Điểm Nhấn Mỡ Hành Vàng Hổ Phách (Golden Scallion Oil) -->
    <circle cx="116" cy="138" r="4.5" fill="#D9822B"/>
  </g>

  </g>

  <!-- Tên Thương Hiệu (Wordmark Lockup) -->
  <g id="wordmark">
    <text x="250" y="124" class="brand-title">BÁNH LỌC <tspan class="brand-accent">NHÀ JUN</tspan></text>
    <circle cx="254" cy="162" r="3" fill="#D9822B"/>
    <text x="268" y="167" class="brand-sub">ĐẶC SẢN GIA TRUYỀN QUẢNG BÌNH</text>
  </g>
</svg>